    <svg width="1.25rem" height="1.25rem"
                                                                viewBox="0 0 20 20" fill="none"
                                                                xmlns="http://www.w3.org/2000/svg" color="currentColor">
                                                                <path
                                                                    d="M17.703 10.291l.75.028a.75.75 0 00-1.424-.357l.674.33zm-14.637-.204a.75.75 0 10-1.347.66l.674-.33.673-.33zM7.5 12.431l.085-.745-.085.745zm5.208-8.843a.75.75 0 00.584-1.382L13 2.897l-.292.691zM10 17.708v-.75A6.958 6.958 0 013.042 10h-1.5A8.458 8.458 0 0010 18.458v-.75zM2.292 10h.75A6.958 6.958 0 0110 3.042v-1.5A8.458 8.458 0 001.542 10h.75zm15.41.291l-.749-.027A6.958 6.958 0 0110 16.958v1.5a8.459 8.459 0 008.452-8.139l-.75-.028zm0 0l-.673-.33c-.057.118-.231.32-.629.559-.383.23-.907.454-1.554.65-1.292.393-2.993.65-4.846.65v1.5c1.98 0 3.83-.273 5.282-.714.726-.22 1.372-.489 1.89-.8.504-.303.963-.691 1.205-1.185l-.674-.33zM10 12.57v-.75c-.848 0-1.66-.047-2.415-.133l-.085.745-.085.745A22.88 22.88 0 0010 13.32v-.75zm-2.5-.138l.085-.745c-1.28-.146-2.375-.403-3.186-.72-.857-.337-1.234-.677-1.333-.879l-.673.33-.674.33c.362.74 1.215 1.255 2.133 1.615.966.378 2.194.658 3.563.814l.085-.745zM10 2.291v.75c.962 0 1.877.195 2.708.547l.292-.69.292-.692A8.434 8.434 0 0010 1.542v.75z"
                                                                    fill="currentColor"></path>
                                                                <path
                                                                    d="M9.64 17.633C8.392 17.108 7.43 13.891 7.43 10c0-3.88.957-7.091 2.2-7.63"
                                                                    stroke="currentColor" stroke-width="1.5"
                                                                    stroke-linecap="round"></path>
                                                                <path
                                                                    d="M14.24 5.362l1.119-.56a.434.434 0 00.194-.193l.56-1.12c.159-.319.615-.319.775 0l.56 1.12c.041.084.11.152.193.194l1.12.56c.319.159.319.615 0 .775l-1.12.56a.434.434 0 00-.194.193l-.56 1.12a.434.434 0 01-.775 0l-.56-1.12a.434.434 0 00-.193-.194l-1.12-.56a.434.434 0 010-.775z"
                                                                    fill="currentColor"></path>
                                                            </svg>