<svg width="1.25rem" height="1.25rem"
                                                                viewBox="0 0 20 20" fill="none"
                                                                xmlns="http://www.w3.org/2000/svg" color="currentColor">
                                                                <path
                                                                    d="M17.5 12.0833C17.5 13.2339 16.5701 14.1667 15.4195 14.1667C13.2501 14.1667 9.81002 14.1667 7.21215 14.1667C6.32809 14.1667 5.48215 14.5179 4.85702 15.143L2.5 17.5C2.5 13.1944 2.5 8.88889 2.5 4.58333C2.5 3.43274 3.43274 2.5 4.58333 2.5L15.4167 2.50001C16.5673 2.50001 17.5 3.43275 17.5 4.58334V8.33334V12.0833Z"
                                                                    stroke="currentColor" stroke-width="1.5"
                                                                    stroke-linecap="round" stroke-linejoin="round">
                                                                </path>
                                                                <path fill-rule="evenodd" clip-rule="evenodd"
                                                                    d="M10 5C10.4142 5 10.75 5.33579 10.75 5.75V6.48966L12.2369 6.48966C12.6584 6.48966 13 6.83133 13 7.25279V7.25279C13 7.67426 12.6584 8.01592 12.2369 8.01592L10.7646 8.01592C10.8154 8.61905 11.0505 9.07465 11.3224 9.38275C11.5788 9.67311 11.9691 9.89802 12.5745 9.96132C12.8033 9.98524 13 10.1614 13 10.3935V11.0914C13 11.3207 12.8039 11.51 12.562 11.4927C11.531 11.4192 10.6882 11.0342 10.0984 10.3659C10.0644 10.3273 10.0319 10.2877 10 10.2478C9.96811 10.2877 9.93563 10.3273 9.90157 10.3659C9.31178 11.0342 8.469 11.4192 7.43802 11.4927C7.21121 11.5089 7.02473 11.3435 7.00234 11.1338L7 11.0914V10.3935C7 10.1614 7.19673 9.98524 7.42552 9.96132C8.03094 9.89802 8.42122 9.67311 8.67761 9.38275C8.94948 9.07465 9.18466 8.61905 9.23542 8.01592C8.75679 8.01592 8.25657 8.01592 7.76313 8.01592C7.34167 8.01592 7 7.67426 7 7.25279V7.25279C7 6.83133 7.34167 6.48966 7.76313 6.48966L9.25001 6.48966V5.75C9.25001 5.33579 9.58579 5 10 5V5Z"
                                                                    fill="currentColor"></path>
                                                            </svg>