  <svg width="1.25rem" height="1.25rem"
                                                                viewBox="0 0 20 20" fill="none"
                                                                xmlns="http://www.w3.org/2000/svg" color="currentColor">
                                                                <path
                                                                    d="M8.31842 2.82462L8.79137 3.4067L8.31842 2.82462ZM9.55075 2.00081L9.34859 1.27857L9.55075 2.00081ZM11.6816 2.82462L12.1545 2.24253L11.6816 2.82462ZM10.4493 2.00081L10.6514 1.27857L10.4493 2.00081ZM4.24335 16.485L4.58384 15.8168L4.24335 16.485ZM3.51499 15.7566L4.18325 15.4162L3.51499 15.7566ZM16.485 15.7566L15.8168 15.4162L16.485 15.7566ZM15.7567 16.485L15.4162 15.8168L15.7567 16.485ZM16.6078 7.22929L15.8843 7.42684L16.6078 7.22929ZM15.6816 6.07462L15.2086 6.6567L15.6816 6.07462ZM16.3546 6.69727L16.9642 6.26031L16.3546 6.69727ZM3.39219 7.22929L4.11571 7.42684L3.39219 7.22929ZM4.31842 6.07462L3.84548 5.49253L4.31842 6.07462ZM3.64542 6.69727L3.03585 6.26031L3.64542 6.69727ZM6.66667 12.5833C6.25246 12.5833 5.91667 12.9191 5.91667 13.3333C5.91667 13.7475 6.25246 14.0833 6.66667 14.0833V12.5833ZM13.3333 14.0833C13.7475 14.0833 14.0833 13.7475 14.0833 13.3333C14.0833 12.9191 13.7475 12.5833 13.3333 12.5833V14.0833ZM16.6667 8.14425H15.9167V14H16.6667H17.4167V8.14425H16.6667ZM14 16.6667V15.9167H6V16.6667V17.4167H14V16.6667ZM3.33334 14H4.08334V8.14425H3.33334H2.58334V14H3.33334ZM4.31842 6.07462L4.79137 6.6567L8.79137 3.4067L8.31842 2.82462L7.84548 2.24253L3.84548 5.49253L4.31842 6.07462ZM11.6816 2.82462L11.2086 3.4067L15.2086 6.6567L15.6816 6.07462L16.1545 5.49253L12.1545 2.24253L11.6816 2.82462ZM8.31842 2.82462L8.79137 3.4067C9.09961 3.15626 9.29964 2.99434 9.46314 2.88044C9.61888 2.77194 9.69878 2.7382 9.75291 2.72305L9.55075 2.00081L9.34859 1.27857C9.06953 1.35668 8.83297 1.49133 8.6057 1.64967C8.38619 1.80259 8.13666 2.00595 7.84548 2.24253L8.31842 2.82462ZM11.6816 2.82462L12.1545 2.24253C11.8633 2.00595 11.6138 1.80259 11.3943 1.64967C11.167 1.49133 10.9305 1.35668 10.6514 1.27857L10.4493 2.00081L10.2471 2.72305C10.3012 2.7382 10.3811 2.77194 10.5369 2.88044C10.7004 2.99434 10.9004 3.15626 11.2086 3.4067L11.6816 2.82462ZM9.55075 2.00081L9.75291 2.72305C9.91453 2.67781 10.0855 2.67781 10.2471 2.72305L10.4493 2.00081L10.6514 1.27857C10.2253 1.1593 9.77468 1.1593 9.34859 1.27857L9.55075 2.00081ZM6 16.6667V15.9167C5.52092 15.9167 5.20671 15.9161 4.96641 15.8965C4.73487 15.8775 4.63875 15.8447 4.58384 15.8168L4.24335 16.485L3.90286 17.1533C4.20447 17.3069 4.51996 17.365 4.84427 17.3915C5.15981 17.4172 5.54567 17.4167 6 17.4167V16.6667ZM3.33334 14H2.58334C2.58334 14.4543 2.58275 14.8402 2.60853 15.1557C2.63503 15.48 2.69306 15.7955 2.84674 16.0971L3.51499 15.7566L4.18325 15.4162C4.15527 15.3612 4.12247 15.2651 4.10355 15.0336C4.08392 14.7933 4.08334 14.4791 4.08334 14H3.33334ZM4.24335 16.485L4.58384 15.8168C4.41136 15.7289 4.27113 15.5886 4.18325 15.4162L3.51499 15.7566L2.84674 16.0971C3.07843 16.5519 3.44813 16.9216 3.90286 17.1533L4.24335 16.485ZM16.6667 14H15.9167C15.9167 14.4791 15.9161 14.7933 15.8965 15.0336C15.8775 15.2651 15.8447 15.3612 15.8168 15.4162L16.485 15.7566L17.1533 16.0971C17.3069 15.7955 17.365 15.48 17.3915 15.1557C17.4173 14.8402 17.4167 14.4543 17.4167 14H16.6667ZM14 16.6667V17.4167C14.4543 17.4167 14.8402 17.4172 15.1557 17.3915C15.48 17.365 15.7955 17.3069 16.0971 17.1533L15.7567 16.485L15.4162 15.8168C15.3613 15.8447 15.2651 15.8775 15.0336 15.8965C14.7933 15.9161 14.4791 15.9167 14 15.9167V16.6667ZM16.485 15.7566L15.8168 15.4162C15.7289 15.5886 15.5886 15.7289 15.4162 15.8168L15.7567 16.485L16.0971 17.1533C16.5519 16.9216 16.9216 16.5519 17.1533 16.0971L16.485 15.7566ZM16.6667 8.14425H17.4167C17.4167 7.71926 17.4229 7.36702 17.3313 7.03174L16.6078 7.22929L15.8843 7.42684C15.9105 7.52266 15.9167 7.6367 15.9167 8.14425H16.6667ZM15.6816 6.07462L15.2086 6.6567C15.6026 6.97677 15.6872 7.05349 15.745 7.13422L16.3546 6.69727L16.9642 6.26031C16.7617 5.97784 16.4844 5.76053 16.1545 5.49253L15.6816 6.07462ZM16.6078 7.22929L17.3313 7.03174C17.2557 6.75483 17.1314 6.49361 16.9642 6.26031L16.3546 6.69727L15.745 7.13422C15.8085 7.22272 15.8556 7.3218 15.8843 7.42684L16.6078 7.22929ZM3.33334 8.14425H4.08334C4.08334 7.6367 4.08954 7.52266 4.11571 7.42684L3.39219 7.22929L2.66868 7.03174C2.57713 7.36702 2.58334 7.71926 2.58334 8.14425H3.33334ZM4.31842 6.07462L3.84548 5.49253C3.51563 5.76053 3.23834 5.97784 3.03585 6.26031L3.64542 6.69727L4.25498 7.13422C4.31285 7.05349 4.39744 6.97676 4.79137 6.6567L4.31842 6.07462ZM3.39219 7.22929L4.11571 7.42684C4.14438 7.3218 4.19155 7.22272 4.25498 7.13422L3.64542 6.69727L3.03585 6.26031C2.86862 6.49361 2.74428 6.75483 2.66868 7.03174L3.39219 7.22929ZM6.66667 13.3333V14.0833H13.3333V13.3333V12.5833H6.66667V13.3333Z"
                                                                    fill="currentColor"></path>
                                                            </svg>