<svg width="1.25rem" height="1.25rem"
                                                                viewBox="0 0 20 20" fill="none"
                                                                xmlns="http://www.w3.org/2000/svg" color="currentColor">
                                                                <path stroke="currentColor" stroke-linecap="round"
                                                                    stroke-linejoin="round" stroke-width="1.5"
                                                                    d="M7.332 14.416c0 1.151-1.12 2.084-2.5 2.084s-2.5-.933-2.5-2.084c0-1.15 1.12-2.083 2.5-2.083s2.5.933 2.5 2.083Zm0 0V6.24c0-.736.483-1.385 1.188-1.597L10 4m5.665 8.916c0 1.151-1.119 2.084-2.5 2.084-1.38 0-2.5-.933-2.5-2.084 0-1.15 1.12-2.083 2.5-2.083 1.381 0 2.5.933 2.5 2.083Zm0 0 .002-4.25">
                                                                </path>
                                                                <path fill="currentColor"
                                                                    d="m12.74 3.445 1.119-.56a.434.434 0 0 0 .194-.193l.56-1.119c.159-.32.615-.32.775 0l.56 1.119c.041.084.11.152.193.194l1.12.56c.319.16.319.615 0 .775l-1.12.56a.434.434 0 0 0-.194.194l-.56 1.118a.434.434 0 0 1-.775 0l-.56-1.118a.434.434 0 0 0-.193-.194l-1.12-.56a.434.434 0 0 1 0-.776Z">
                                                                </path>
                                                            </svg>