<svg viewBox="0 0 20 20" fill="none"
                                                xmlns="http://www.w3.org/2000/svg" color="currentColor">
                                                <path
                                                    d="M16.875 13.5367C16.875 13.9997 16.4997 14.375 16.0368 14.375H3.96327C3.50031 14.375 3.125 13.9997 3.125 13.5367C3.125 13.4031 3.15696 13.2713 3.21822 13.1526L4.1665 11.3134C4.32966 10.997 4.42335 10.6494 4.44131 10.2938L4.58626 7.42413C4.7305 4.54901 7.11155 2.29166 10 2.29166C12.8884 2.29166 15.2695 4.54901 15.4137 7.42413L15.5587 10.2938C15.5767 10.6494 15.6703 10.997 15.8335 11.3134L16.7817 13.1526C16.843 13.2713 16.875 13.4031 16.875 13.5367Z"
                                                    stroke="currentColor" stroke-width="1.5" stroke-linecap="round"
                                                    stroke-linejoin="round"></path>
                                                <path
                                                    d="M13.3332 14.375C13.3332 16.2159 11.8408 17.7083 9.99984 17.7083C8.15889 17.7083 6.6665 16.2159 6.6665 14.375"
                                                    stroke="currentColor" stroke-width="1.5" stroke-linecap="round"
                                                    stroke-linejoin="round"></path>
                                            </svg>