<svg width="1.25rem" height="1.25rem"
                                                                viewBox="0 0 20 20" fill="none"
                                                                xmlns="http://www.w3.org/2000/svg" color="currentColor">
                                                                <path
                                                                    d="M9.99984 2.29167L10.8007 3.84616C11.36 4.93178 12.6218 5.45443 13.7849 5.08227L15.4504 4.54938L14.9176 6.21488C14.5454 7.37802 15.0681 8.63983 16.1537 9.19917L17.7082 10L16.4892 10.628C15.2642 11.2592 14.7808 12.7627 15.4087 13.9894L16.8968 16.8969L13.9893 15.4088C12.7625 14.781 11.259 15.2643 10.6278 16.4893L9.99984 17.7083L9.199 16.1538C8.63967 15.0682 7.37786 14.5456 6.21472 14.9178L4.54922 15.4506L5.08211 13.7851C5.45427 12.622 4.93162 11.3602 3.846 10.8008L2.2915 10L3.51048 9.372C4.73554 8.74083 5.21882 7.23736 4.59097 6.01061L3.1029 3.10307L6.01045 4.59113C7.2372 5.21898 8.74067 4.7357 9.37184 3.51064L9.99984 2.29167Z"
                                                                    stroke="currentColor" stroke-width="1.5"
                                                                    stroke-linejoin="round"></path>
                                                            </svg>