     <svg width="1.25rem" height="1.25rem"
                                                                viewBox="0 0 20 20" fill="none"
                                                                xmlns="http://www.w3.org/2000/svg" color="currentColor">
                                                                <path
                                                                    d="M16.2439 3.125C18.1965 5.07762 18.1965 8.24345 16.2439 10.1961M13.8868 5.48202C14.5377 6.1329 14.5377 7.18817 13.8868 7.83905"
                                                                    stroke="currentColor" stroke-width="1.5"
                                                                    stroke-linecap="round"></path>
                                                                <path
                                                                    d="M6.6297 14.3522C7.39353 14.3522 8.15735 13.9694 8.49936 13.3182H8.53357V13.6324C8.56777 14.1237 8.88128 14.375 9.33159 14.375C9.80471 14.375 10.141 14.0894 10.141 13.5353V10.045C10.141 8.81116 9.12069 8 7.55313 8C6.28769 8 5.30725 8.45128 5.02224 9.18246C4.96524 9.30813 4.93674 9.42809 4.93674 9.55948C4.93674 9.93649 5.22745 10.1993 5.63216 10.1993C5.90007 10.1993 6.11098 10.0964 6.29339 9.89079C6.6639 9.41095 6.97171 9.2453 7.47903 9.2453C8.10605 9.2453 8.50507 9.57661 8.50507 10.1479V10.5534L6.96601 10.6448C5.43836 10.7362 4.58333 11.3817 4.58333 12.4956C4.58333 13.5981 5.46686 14.3522 6.6297 14.3522ZM7.17692 13.1468C6.6183 13.1468 6.24209 12.8612 6.24209 12.4042C6.24209 11.9701 6.5955 11.6902 7.21682 11.6445L8.50507 11.5645V12.0101C8.50507 12.6727 7.90654 13.1468 7.17692 13.1468Z"
                                                                    fill="currentColor"></path>
                                                                <path
                                                                    d="M10 3.33333H5C3.61929 3.33333 2.5 4.45262 2.5 5.83333V14.1667C2.5 15.5474 3.61929 16.6667 5 16.6667H15C16.3807 16.6667 17.5 15.5474 17.5 14.1667V13.3333"
                                                                    stroke="currentColor" stroke-width="1.5"
                                                                    stroke-linecap="round"></path>
                                                            </svg>