<svg width="1.25rem" height="1.25rem"
                                                                viewBox="0 0 20 20" fill="none"
                                                                xmlns="http://www.w3.org/2000/svg" color="currentColor">
                                                                <path
                                                                    d="M11.9336 10.5H7.00273M9.31545 7.5H7.00273M11.6364 3H6.4C5.06818 3 4 3.76409 4 5.02853V13.5M16 13.5V15.9583C16 16.5336 15.5336 17 14.9583 17H10H5.72697C4.77319 17 4 16.2268 4 15.273V13.5M16 13.5V10.87M16 13.5H10H4"
                                                                    stroke="currentColor" stroke-width="1.5"
                                                                    stroke-linecap="round" stroke-linejoin="round">
                                                                </path>
                                                                <path
                                                                    d="M13.7398 5.11206L14.8586 4.55262C14.9426 4.51065 15.0106 4.44258 15.0526 4.35865L15.6121 3.23976C15.7719 2.92008 16.2281 2.92008 16.3879 3.23976L16.9474 4.35865C16.9894 4.44258 17.0574 4.51065 17.1414 4.55262L18.2602 5.11206C18.5799 5.2719 18.5799 5.7281 18.2602 5.88794L17.1414 6.44738C17.0574 6.48935 16.9894 6.55741 16.9474 6.64135L16.3879 7.76024C16.2281 8.07992 15.7719 8.07992 15.6121 7.76024L15.0526 6.64135C15.0106 6.55742 14.9426 6.48935 14.8586 6.44738L13.7398 5.88794C13.4201 5.7281 13.4201 5.2719 13.7398 5.11206Z"
                                                                    fill="currentColor"></path>
                                                            </svg>